<svg xmlns="http://www.w3.org/2000/svg" viewBox="0 0 120 120" width="120" height="120" role="img" aria-label="Princeton Chess Club logo">
  <!-- 8x8 chessboard background -->
  <rect x="0" y="0" width="120" height="120" fill="#fff"/>
  <g><rect x="0.0" y="0.0" width="15.0" height="15.0" fill="#111"/>
    <rect x="30.0" y="0.0" width="15.0" height="15.0" fill="#111"/>
    <rect x="60.0" y="0.0" width="15.0" height="15.0" fill="#111"/>
    <rect x="90.0" y="0.0" width="15.0" height="15.0" fill="#111"/>
    <rect x="15.0" y="15.0" width="15.0" height="15.0" fill="#111"/>
    <rect x="45.0" y="15.0" width="15.0" height="15.0" fill="#111"/>
    <rect x="75.0" y="15.0" width="15.0" height="15.0" fill="#111"/>
    <rect x="105.0" y="15.0" width="15.0" height="15.0" fill="#111"/>
    <rect x="0.0" y="30.0" width="15.0" height="15.0" fill="#111"/>
    <rect x="30.0" y="30.0" width="15.0" height="15.0" fill="#111"/>
    <rect x="60.0" y="30.0" width="15.0" height="15.0" fill="#111"/>
    <rect x="90.0" y="30.0" width="15.0" height="15.0" fill="#111"/>
    <rect x="15.0" y="45.0" width="15.0" height="15.0" fill="#111"/>
    <rect x="45.0" y="45.0" width="15.0" height="15.0" fill="#111"/>
    <rect x="75.0" y="45.0" width="15.0" height="15.0" fill="#111"/>
    <rect x="105.0" y="45.0" width="15.0" height="15.0" fill="#111"/>
    <rect x="0.0" y="60.0" width="15.0" height="15.0" fill="#111"/>
    <rect x="30.0" y="60.0" width="15.0" height="15.0" fill="#111"/>
    <rect x="60.0" y="60.0" width="15.0" height="15.0" fill="#111"/>
    <rect x="90.0" y="60.0" width="15.0" height="15.0" fill="#111"/>
    <rect x="15.0" y="75.0" width="15.0" height="15.0" fill="#111"/>
    <rect x="45.0" y="75.0" width="15.0" height="15.0" fill="#111"/>
    <rect x="75.0" y="75.0" width="15.0" height="15.0" fill="#111"/>
    <rect x="105.0" y="75.0" width="15.0" height="15.0" fill="#111"/>
    <rect x="0.0" y="90.0" width="15.0" height="15.0" fill="#111"/>
    <rect x="30.0" y="90.0" width="15.0" height="15.0" fill="#111"/>
    <rect x="60.0" y="90.0" width="15.0" height="15.0" fill="#111"/>
    <rect x="90.0" y="90.0" width="15.0" height="15.0" fill="#111"/>
    <rect x="15.0" y="105.0" width="15.0" height="15.0" fill="#111"/>
    <rect x="45.0" y="105.0" width="15.0" height="15.0" fill="#111"/>
    <rect x="75.0" y="105.0" width="15.0" height="15.0" fill="#111"/>
    <rect x="105.0" y="105.0" width="15.0" height="15.0" fill="#111"/></g>
  <!-- Official Princeton crest, composited on top.
       Save the real crest in this folder as "crest.png" (or crest.svg) and it appears here. -->
  <image href="crest.png" x="18" y="6" width="84" height="108" preserveAspectRatio="xMidYMid meet"/>
</svg>